<?xml version="1.0" encoding="UTF-8"?>
<!DOCTYPE svg PUBLIC "-//W3C//DTD SVG 1.1//EN" "http://www.w3.org/Graphics/SVG/1.1/DTD/svg11.dtd">
<svg xmlns="http://www.w3.org/2000/svg" version="1.1" width="940px" height="940px" style="shape-rendering:geometricPrecision; text-rendering:geometricPrecision; image-rendering:optimizeQuality; fill-rule:evenodd; clip-rule:evenodd" xmlns:xlink="http://www.w3.org/1999/xlink">
<g><path style="opacity:0.978" fill="#fafafa" d="M 443.5,-0.5 C 461.5,-0.5 479.5,-0.5 497.5,-0.5C 643.202,11.5767 760.368,74.9101 849,189.5C 900.068,259.831 930.235,338.498 939.5,425.5C 939.5,455.167 939.5,484.833 939.5,514.5C 923.188,656.195 858.188,769.195 744.5,853.5C 675.213,901.806 598.546,930.473 514.5,939.5C 484.833,939.5 455.167,939.5 425.5,939.5C 291.332,923.99 182.165,863.99 98,759.5C 49.3291,695.723 18.1624,624.056 4.5,544.5C 2.75339,528.691 1.08672,513.024 -0.5,497.5C -0.5,479.5 -0.5,461.5 -0.5,443.5C 10.027,306.266 67.027,193.766 170.5,106C 180.833,98.1667 191.167,90.3333 201.5,82.5C 274.468,33.3967 355.134,5.73001 443.5,-0.5 Z M 186.5,256.5 C 380,255.334 573.666,255.167 767.5,256C 753.883,266.616 740.883,277.95 728.5,290C 694.182,319.649 659.849,349.316 625.5,379C 576.688,422.884 527.355,466.05 477.5,508.5C 380.832,425.492 284.832,341.826 189.5,257.5C 188.583,256.873 187.583,256.539 186.5,256.5 Z M 243.5,600.5 C 242.685,601.837 241.518,602.837 240,603.5C 234.144,611.9 228.311,620.233 222.5,628.5C 209.717,645.767 196.717,662.767 183.5,679.5C 183.333,548.833 183.5,418.166 184,287.5C 243.003,339.267 302.169,390.934 361.5,442.5C 321.593,495.026 282.26,547.693 243.5,600.5 Z M 769.5,287.5 C 770.666,417.999 770.833,548.666 770,679.5C 712.264,601.607 653.097,522.44 592.5,442C 652.065,390.921 711.065,339.421 769.5,287.5 Z M 630.5,527.5 C 668.459,578.391 706.625,629.724 745,681.5C 745.903,682.701 747.069,683.535 748.5,684C 567.833,684.667 387.167,684.667 206.5,684C 222.682,661.973 239.349,640.306 256.5,619C 256.167,618.667 255.833,618.333 255.5,618C 262.447,608.716 269.78,599.716 277.5,591C 277.167,590.667 276.833,590.333 276.5,590C 296.94,562.557 317.773,535.39 339,508.5C 351.3,490.539 363.966,472.873 377,455.5C 410.074,484.915 443.408,513.915 477,542.5C 486.446,535.392 495.613,527.892 504.5,520C 528.046,497.786 552.213,476.286 577,455.5C 594.277,479.94 612.111,503.94 630.5,527.5 Z"/></g>
</svg>
