<?xml version="1.0" standalone="no"?>
<!DOCTYPE svg PUBLIC "-//W3C//DTD SVG 20010904//EN"
 "http://www.w3.org/TR/2001/REC-SVG-20010904/DTD/svg10.dtd">
<svg version="1.0" xmlns="http://www.w3.org/2000/svg"
 width="512.000000pt" height="512.000000pt" viewBox="0 0 512.000000 512.000000"
 preserveAspectRatio="xMidYMid meet">
<metadata>
Created by potrace 1.14, written by Peter Selinger 2001-2017
</metadata>
<g transform="translate(0.000000,512.000000) scale(0.100000,-0.100000)"
fill="#000000" stroke="none">
<path d="M1253 2518 l0 -1968 1317 0 1318 0 0 355 c0 195 -2 355 -6 356 -4 1
-428 2 -942 4 -514 1 -938 3 -941 4 -3 0 -5 198 -5 439 l1 437 795 0 795 1 3
357 2 357 -798 0 -798 0 1 453 0 452 946 5 946 5 1 353 c0 193 -3 352 -6 353
-4 0 -597 2 -1318 2 l-1311 2 0 -1967z"/>
</g>
</svg>
